<?xml version="1.0" standalone="no"?>
<!DOCTYPE svg PUBLIC "-//W3C//DTD SVG 20010904//EN"
 "http://www.w3.org/TR/2001/REC-SVG-20010904/DTD/svg10.dtd">
<svg version="1.0" xmlns="http://www.w3.org/2000/svg"
 width="368.000000pt" height="368.000000pt" viewBox="0 0 368.000000 368.000000"
 preserveAspectRatio="xMidYMid meet">
<metadata>
Created by potrace 1.14, written by Peter Selinger 2001-2017
</metadata>
<g transform="translate(0.000000,368.000000) scale(0.100000,-0.100000)"
fill="#000000" stroke="none">
<path d="M1705 3600 c-130 -9 -173 -18 -185 -40 -5 -10 -9 -66 -8 -126 0 -60
-4 -161 -11 -224 -16 -166 -15 -249 4 -256 8 -4 15 -14 15 -25 0 -15 9 -19 55
-21 61 -3 79 -21 28 -26 -18 -2 -33 -6 -33 -10 1 -15 51 -43 68 -38 10 4 27
-1 38 -9 10 -8 24 -15 31 -15 7 0 23 -11 37 -25 14 -14 31 -25 38 -25 8 0 20
-9 28 -20 15 -21 40 -26 56 -11 14 15 92 21 120 11 13 -5 28 -18 31 -27 8 -22
28 -43 40 -43 22 1 51 40 53 71 4 76 1 88 -25 95 -35 9 -65 50 -65 90 0 30 -3
34 -25 34 -14 0 -25 4 -25 10 0 5 8 9 18 8 48 -4 64 2 59 21 -6 25 25 34 53
14 25 -18 18 -33 -16 -33 -22 0 -24 -3 -18 -22 4 -13 10 -25 14 -28 3 -3 13
-20 21 -37 8 -19 21 -33 31 -33 10 0 18 -4 18 -10 0 -5 11 -10 24 -10 13 0 31
-3 39 -6 14 -5 13 -8 -1 -23 -46 -49 -53 -62 -41 -77 20 -25 48 -16 66 21 14
30 22 35 50 35 33 0 47 23 21 33 -7 2 -1 8 14 12 15 4 29 13 32 21 3 8 13 14
23 14 10 1 29 7 42 14 23 13 23 13 -15 18 -22 3 -88 7 -149 8 -60 1 -113 4
-117 6 -14 9 -9 42 7 48 9 3 15 18 15 36 0 25 -4 30 -25 30 -14 0 -25 5 -25
10 0 6 12 10 26 10 37 0 29 35 -9 36 -15 1 -27 -3 -27 -7 0 -4 -23 -6 -52 -3
-62 5 -82 25 -38 38 18 5 30 16 30 26 0 22 20 30 70 30 31 0 39 4 44 23 11 43
8 47 -41 47 -27 0 -55 5 -63 10 -11 7 -5 10 23 10 30 0 37 4 37 20 0 11 -6 29
-12 40 -21 34 5 41 132 38 l115 -3 6 65 c4 36 10 73 14 82 5 13 0 20 -20 28
-68 26 -260 59 -375 65 -69 3 -134 7 -145 9 -11 1 -65 -1 -120 -4z m305 -582
c0 -4 -16 -8 -36 -8 -19 0 -33 4 -30 8 3 5 19 9 36 9 16 0 30 -4 30 -9z m-79
-37 l21 -19 -20 -11 c-12 -6 -47 -11 -79 -10 -47 0 -54 2 -34 10 13 5 35 8 50
7 20 -2 27 2 29 20 4 27 7 27 33 3z m-58 -101 c26 0 47 -4 47 -10 0 -5 -9 -10
-20 -10 -27 0 -27 -37 1 -45 11 -4 18 -12 16 -18 -7 -19 -48 -9 -74 19 -25 27
-49 27 -47 0 2 -20 -3 -20 -22 -2 -10 10 -11 17 -3 21 6 4 8 14 5 22 -9 22 4
35 28 29 11 -3 42 -6 69 -6z m137 -100 c0 -5 -4 -10 -10 -10 -5 0 -10 5 -10
10 0 6 5 10 10 10 6 0 10 -4 10 -10z"/>
<path d="M2453 3475 c0 -7 13 -29 29 -47 15 -18 31 -41 34 -50 8 -27 39 -21
51 10 l11 27 1 -29 c1 -25 4 -27 26 -22 20 5 25 3 25 -14 0 -11 4 -20 10 -20
5 0 13 -18 16 -40 6 -36 24 -67 24 -41 0 6 5 11 11 11 6 0 9 -8 6 -19 -6 -25
10 -51 33 -51 11 0 20 -4 20 -10 0 -5 10 -18 22 -29 20 -19 21 -31 22 -158 1
-116 3 -138 16 -138 10 0 16 12 18 40 1 22 4 69 6 105 4 74 14 120 26 120 5 0
10 -10 12 -22 4 -33 22 -28 25 6 3 38 9 42 30 20 13 -12 14 -19 5 -22 -20 -6
-15 -52 7 -52 19 0 30 -31 32 -94 1 -31 1 -31 13 9 12 36 13 37 19 15 4 -14 7
-59 7 -100 0 -95 10 -180 21 -180 5 0 16 16 24 36 12 29 18 34 28 25 17 -14
27 -4 27 26 0 22 21 30 67 24 7 -1 29 6 50 15 21 9 44 16 51 15 20 -3 14 11
-31 70 -111 147 -301 323 -460 427 -94 61 -198 107 -207 92 -5 -8 -9 -7 -13 4
-12 30 -114 67 -114 41z"/>
<path d="M1034 3402 c-6 -4 -16 -16 -22 -27 -6 -11 -12 -15 -12 -8 0 7 -6 10
-13 7 -10 -3 -11 -22 -3 -87 9 -81 12 -134 15 -231 2 -89 14 -39 18 80 4 96 8
119 24 135 24 24 33 61 25 104 -7 36 -13 40 -32 27z"/>
<path d="M845 3293 c-116 -79 -290 -243 -381 -358 -293 -376 -419 -836 -360
-1315 41 -328 161 -610 372 -875 81 -101 191 -211 202 -200 7 6 11 44 31 270
5 55 14 159 20 230 6 72 14 139 17 150 3 11 10 74 15 140 22 302 28 363 39
400 13 46 17 69 19 106 2 37 22 60 61 68 32 7 37 4 58 -25 12 -18 22 -37 22
-41 0 -11 41 -87 50 -93 10 -6 30 -78 30 -108 0 -13 16 -38 39 -60 47 -46 61
-71 61 -113 0 -19 10 -46 25 -65 18 -23 25 -45 25 -75 0 -41 13 -95 31 -131 5
-10 9 -29 9 -43 0 -20 5 -25 25 -25 16 0 25 -6 25 -15 0 -8 7 -15 15 -15 11 0
13 -8 8 -32 -3 -18 -10 -34 -15 -36 -4 -2 -8 -8 -8 -13 0 -12 47 -12 55 1 4 7
13 6 26 -1 12 -6 41 -11 65 -12 39 -2 44 -5 40 -21 -3 -11 1 -20 12 -23 20 -6
55 -58 71 -106 7 -19 18 -38 26 -41 9 -3 15 -18 15 -35 0 -33 -35 -67 -79 -78
-14 -3 -37 -18 -52 -32 -36 -38 -58 -52 -122 -85 -31 -16 -57 -33 -57 -37 0
-4 -2 -13 -5 -21 -3 -7 4 -18 17 -23 15 -7 26 -26 35 -65 8 -30 18 -71 23 -90
5 -19 16 -64 25 -100 8 -36 18 -75 21 -87 7 -26 5 -25 154 -53 159 -31 445
-31 604 -1 181 34 293 71 456 148 186 89 350 208 350 255 0 15 -4 30 -10 33
-5 3 -10 24 -10 45 0 21 -4 40 -8 42 -7 2 -22 87 -47 263 -8 56 -11 67 -22 73
-6 4 -14 23 -18 42 -8 35 -22 53 -37 44 -4 -3 -8 -31 -8 -63 0 -33 -7 -72 -15
-87 -8 -16 -15 -37 -15 -46 0 -9 -4 -19 -9 -22 -4 -3 -11 -19 -14 -36 -4 -16
-16 -38 -27 -47 -11 -10 -20 -27 -20 -39 0 -12 -7 -27 -15 -34 -8 -7 -15 -21
-15 -31 0 -11 -9 -27 -20 -36 -11 -10 -20 -23 -20 -30 0 -9 -8 -11 -24 -7 -14
3 -31 2 -38 -2 -9 -6 -7 -10 9 -14 20 -5 20 -6 6 -25 -11 -14 -17 -16 -20 -7
-7 18 -53 15 -53 -3 0 -11 -11 -14 -41 -13 -24 1 -44 -4 -49 -11 -6 -10 -12
-10 -29 0 -26 17 -26 30 -2 58 23 27 36 103 22 130 -22 41 -6 133 26 154 7 4
13 16 13 26 0 21 -49 32 -94 20 -14 -4 -29 -3 -32 2 -9 15 -54 -39 -54 -65 0
-13 -6 -26 -14 -29 -7 -3 -18 -25 -24 -49 -6 -23 -20 -50 -32 -58 -11 -8 -20
-19 -20 -24 0 -8 -25 -32 -67 -66 -7 -6 -27 -13 -45 -16 -32 -5 -64 -17 -100
-35 -10 -5 -33 -9 -52 -9 -28 0 -40 7 -60 33 -49 64 -40 127 17 127 32 0 97
47 97 70 0 10 3 20 8 22 11 5 41 66 34 72 -9 10 -70 7 -77 -4 -3 -5 -28 -12
-56 -16 -27 -4 -52 -11 -55 -15 -7 -12 -44 -11 -44 0 0 5 5 11 12 13 7 3 9 12
5 22 -5 14 -14 17 -33 12 -28 -7 -54 12 -54 39 0 19 -23 45 -39 45 -6 0 -11 4
-11 9 0 5 -3 16 -6 24 -6 15 55 87 75 87 14 0 51 31 51 44 0 8 -31 5 -117 -10
-43 -8 -44 15 -3 49 17 14 30 30 30 36 0 6 5 11 10 11 6 0 10 6 10 13 0 8 11
24 25 37 26 24 26 24 5 32 -24 9 -18 28 8 28 22 1 52 24 52 39 0 13 -37 6 -55
-10 -5 -5 -18 -9 -30 -9 -11 0 -28 -7 -37 -14 -20 -14 -24 -36 -8 -36 21 0 9
-18 -12 -19 -88 -4 -133 1 -159 16 -26 16 -29 23 -29 70 0 28 5 55 10 58 12 7
14 75 2 75 -11 0 -32 99 -32 153 0 35 -7 57 -27 86 -16 22 -32 40 -36 41 -5 0
-23 10 -40 23 -24 16 -51 23 -107 27 l-75 5 -8 47 c-8 40 -6 55 13 93 15 32
28 45 43 45 11 0 29 7 38 16 24 21 79 33 212 46 59 6 107 15 107 19 0 5 13 9
29 9 17 0 33 5 36 10 4 6 43 10 93 9 110 -2 180 8 214 32 14 11 31 19 37 19 6
0 20 5 31 12 23 14 80 -2 113 -32 10 -10 29 -21 42 -24 29 -7 85 -56 85 -74 0
-7 11 -37 24 -65 13 -29 26 -61 29 -72 15 -55 37 -101 58 -123 l23 -24 9 33
c10 39 2 128 -13 143 -14 14 -13 82 3 98 23 25 37 69 37 121 0 48 -2 53 -29
65 -16 7 -38 30 -49 50 -10 20 -28 38 -38 40 -28 5 -104 41 -104 50 0 4 -14
15 -31 25 -22 12 -36 14 -47 7 -15 -8 -14 -9 4 -10 13 0 24 -8 27 -21 6 -24
-9 -32 -50 -27 -21 2 -27 8 -25 21 2 11 -10 31 -26 47 -17 16 -33 38 -37 49
-3 12 -15 21 -26 21 -10 0 -19 5 -19 10 0 14 -27 12 -33 -2 -3 -8 -9 -1 -16
15 -8 21 -17 27 -41 27 -16 0 -30 5 -30 10 0 6 10 10 23 10 15 0 29 9 36 24 7
13 24 30 37 37 31 16 31 39 1 39 -15 0 -29 -9 -37 -24 -12 -24 -43 -40 -54
-28 -3 3 -6 14 -6 24 0 25 -23 48 -49 48 -12 0 -21 5 -21 11 0 8 -19 10 -62 5
-35 -3 -90 -9 -123 -12 -57 -5 -72 -9 -140 -39 -50 -23 -222 -42 -237 -27 -7
7 -3 12 11 17 27 8 18 25 -14 25 -13 0 -27 5 -30 10 -3 6 -15 10 -26 10 -10 0
-19 4 -19 8 0 11 66 42 91 42 11 0 22 8 25 18 12 34 35 77 55 104 22 27 19 48
-7 48 -17 0 -88 -69 -98 -95 -3 -9 -15 -19 -26 -22 -11 -3 -20 -11 -20 -17 0
-7 -11 -19 -25 -26 -14 -7 -25 -19 -25 -26 0 -7 -6 -15 -12 -17 -9 -4 -9 -8
-3 -14 6 -4 17 -17 25 -27 14 -18 13 -19 -40 -12 l-56 7 -17 -36 c-9 -20 -17
-40 -17 -46 0 -5 -7 -21 -16 -35 -12 -17 -20 -21 -29 -14 -8 6 -18 5 -31 -5
-19 -14 -19 -14 1 -16 11 -1 28 -1 38 0 9 1 17 -4 17 -11 0 -15 -71 -50 -82
-40 -4 4 0 41 9 82 11 52 15 116 14 206 -2 87 1 134 8 138 7 5 11 49 11 120 0
61 4 116 9 121 12 13 25 255 14 255 -5 0 -54 -30 -108 -67z m195 -703 c0 -5
-4 -10 -10 -10 -5 0 -10 5 -10 10 0 6 5 10 10 10 6 0 10 -4 10 -10z m768 -48
c2 -7 -7 -12 -22 -12 -29 0 -44 -18 -22 -26 17 -7 22 -44 6 -44 -5 0 -10 5
-10 10 0 6 -7 10 -15 10 -8 0 -15 4 -15 9 0 5 -11 11 -25 13 -34 4 -27 23 8
23 15 0 31 5 35 11 15 24 53 27 60 6z m-508 -1 c0 -6 -5 -13 -10 -16 -15 -9
-43 3 -35 15 8 13 45 13 45 1z m-192 -38 c-2 -12 -14 -19 -36 -21 -37 -4 -42
10 -9 26 33 16 49 14 45 -5z m745 -58 c-4 -15 -36 -12 -41 3 -3 9 3 13 19 10
13 -1 23 -7 22 -13z m47 -25 c0 -5 -7 -10 -15 -10 -8 0 -15 5 -15 10 0 6 7 10
15 10 8 0 15 -4 15 -10z m-170 -29 c0 -11 5 -23 10 -26 10 -6 14 -45 5 -45
-13 0 -85 43 -85 51 0 5 11 9 25 9 16 0 25 6 25 15 0 8 5 15 10 15 6 0 10 -9
10 -19z m210 -16 c17 -20 37 -19 49 3 9 15 13 14 43 -17 22 -22 29 -35 21 -38
-7 -3 -13 -11 -13 -19 0 -22 -17 -16 -24 9 -6 22 -7 22 -21 3 -15 -19 -15 -19
-45 2 -16 12 -34 22 -40 22 -5 0 -10 11 -10 25 0 28 21 33 40 10z m-112 -35
c8 -13 9 -20 1 -20 -11 0 -39 24 -39 34 0 14 26 4 38 -14z m-1081 -35 c-7 -16
-37 -21 -37 -5 0 10 32 31 39 25 2 -2 1 -11 -2 -20z m653 -715 c0 -5 -11 -10
-24 -10 -13 0 -26 -6 -29 -12 -2 -7 -8 -10 -12 -6 -4 4 -5 14 -2 23 7 17 67
22 67 5z m22 -57 c0 -10 2 -31 3 -46 1 -15 7 -33 14 -40 6 -6 11 -26 11 -45 0
-31 -15 -63 -72 -159 -13 -21 -28 -47 -34 -58 -13 -24 -34 -31 -34 -13 0 8
-16 27 -35 42 -24 19 -36 39 -41 64 -4 21 -10 42 -14 47 -9 13 -19 106 -13
122 2 7 27 16 55 19 30 4 57 14 67 25 8 11 28 19 43 19 21 0 28 5 28 20 0 25
19 27 22 3z"/>
<path d="M2158 3328 c-8 -23 4 -49 19 -44 8 3 19 6 25 6 5 0 8 10 6 23 -3 25
-43 37 -50 15z"/>
<path d="M2350 3230 c0 -5 7 -10 15 -10 8 0 15 5 15 10 0 6 -7 10 -15 10 -8 0
-15 -4 -15 -10z"/>
<path d="M955 3077 c-4 -10 -5 -21 -1 -24 10 -10 18 4 13 24 -4 17 -4 17 -12
0z"/>
<path d="M1248 3013 c7 -3 16 -2 19 1 4 3 -2 6 -13 5 -11 0 -14 -3 -6 -6z"/>
<path d="M1392 2965 c-13 -7 -24 -15 -25 -19 -3 -9 52 -36 74 -36 23 0 33 16
14 24 -8 3 -15 15 -15 26 0 22 -14 24 -48 5z"/>
<path d="M952 2885 c0 -16 2 -22 5 -12 2 9 2 23 0 30 -3 6 -5 -1 -5 -18z"/>
<path d="M2970 2886 c0 -14 5 -26 10 -26 6 0 10 9 10 19 0 11 -4 23 -10 26 -6
4 -10 -5 -10 -19z"/>
<path d="M955 2800 c3 -5 8 -10 11 -10 2 0 4 5 4 10 0 6 -5 10 -11 10 -5 0 -7
-4 -4 -10z"/>
<path d="M2294 2575 c8 -8 23 -15 32 -15 16 0 16 1 -2 15 -26 20 -51 20 -30 0z"/>
<path d="M2070 2540 c0 -5 5 -10 10 -10 6 0 10 5 10 10 0 6 -4 10 -10 10 -5 0
-10 -4 -10 -10z"/>
<path d="M2140 2490 c0 -5 9 -10 20 -10 11 0 20 5 20 10 0 6 -9 10 -20 10 -11
0 -20 -4 -20 -10z"/>
<path d="M1866 2041 c-4 -6 -20 -11 -35 -11 -29 0 -86 -24 -96 -41 -4 -5 -15
-9 -25 -9 -35 0 -139 -52 -146 -72 -8 -26 3 -65 20 -71 10 -4 13 -1 9 9 -3 7
0 14 6 14 6 0 11 -4 11 -10 0 -5 11 -10 25 -10 18 0 25 -5 25 -20 0 -11 -5
-20 -11 -20 -27 0 2 -26 37 -33 21 -4 51 -10 67 -14 16 -3 27 -1 27 6 0 6 -4
11 -10 11 -5 0 -10 5 -10 10 0 6 13 10 29 10 17 0 33 -4 36 -10 3 -5 -1 -10
-9 -10 -10 0 -16 -9 -16 -24 0 -15 -7 -26 -17 -29 -10 -3 2 -5 27 -6 25 0 53
6 64 14 19 15 19 15 -2 15 -12 0 -22 -4 -22 -10 0 -5 -4 -10 -10 -10 -5 0 -10
7 -10 15 0 8 4 15 9 15 5 0 11 8 13 18 3 9 22 26 44 37 21 11 41 23 42 28 2 4
10 7 18 7 8 0 14 4 14 9 0 5 9 11 20 14 14 4 20 14 20 35 0 25 -5 30 -27 34
-16 2 -41 1 -58 -3 l-30 -6 27 -7 c37 -11 27 -23 -24 -30 -117 -17 -111 -17
-97 0 11 13 10 18 -4 26 -16 9 -16 11 5 27 33 25 79 42 129 47 100 9 159 22
159 33 0 19 -213 40 -224 22z"/>
<path d="M2627 1809 c-10 -28 -17 -59 -17 -68 0 -9 -9 -22 -19 -28 -17 -11
-21 -9 -26 7 -11 33 -24 22 -27 -22 -3 -39 -6 -43 -33 -48 -22 -4 -31 -11 -33
-28 -2 -12 1 -22 7 -22 6 0 11 -8 11 -18 0 -21 53 -72 74 -72 8 0 26 5 40 11
23 11 25 16 29 123 2 61 10 130 18 153 9 30 10 46 3 53 -8 8 -16 -5 -27 -41z
m-50 -256 c-2 -16 -4 -3 -4 27 0 30 2 43 4 28 2 -16 2 -40 0 -55z"/>
<path d="M2685 1830 c3 -5 8 -10 11 -10 2 0 4 5 4 10 0 6 -5 10 -11 10 -5 0
-7 -4 -4 -10z"/>
<path d="M2660 1730 c0 -5 5 -10 10 -10 6 0 10 5 10 10 0 6 -4 10 -10 10 -5 0
-10 -4 -10 -10z"/>
<path d="M2090 1282 c0 -5 -19 -14 -42 -21 -67 -19 -98 -35 -98 -48 0 -7 9
-13 20 -13 11 0 20 5 20 10 0 6 20 10 45 10 25 0 45 -4 45 -10 0 -5 7 -10 15
-10 8 0 15 9 15 19 0 33 11 51 31 51 10 0 19 5 19 10 0 6 -16 10 -35 10 -19 0
-35 -4 -35 -8z"/>
<path d="M1188 1113 c7 -3 16 -2 19 1 4 3 -2 6 -13 5 -11 0 -14 -3 -6 -6z"/>
<path d="M1260 1060 c0 -11 5 -20 10 -20 6 0 10 9 10 20 0 11 -4 20 -10 20 -5
0 -10 -9 -10 -20z"/>
<path d="M2590 630 c0 -11 5 -20 10 -20 6 0 10 9 10 20 0 11 -4 20 -10 20 -5
0 -10 -9 -10 -20z"/>
<path d="M2495 611 c-3 -5 -1 -12 5 -16 5 -3 10 1 10 9 0 18 -6 21 -15 7z"/>
</g>
</svg>
