<?xml version="1.0" standalone="no"?>
<!DOCTYPE svg PUBLIC "-//W3C//DTD SVG 20010904//EN"
 "http://www.w3.org/TR/2001/REC-SVG-20010904/DTD/svg10.dtd">
<svg version="1.0" xmlns="http://www.w3.org/2000/svg"
 width="500.000000pt" height="500.000000pt" viewBox="0 0 500.000000 500.000000"
 preserveAspectRatio="xMidYMid meet">
<metadata>
Created by potrace 1.14, written by Peter Selinger 2001-2017
</metadata>
<g transform="translate(0.000000,500.000000) scale(0.100000,-0.100000)"
fill="#000000" stroke="none">
<path d="M3268 3855 c-3 -3 -19 -8 -35 -9 -39 -4 -75 -20 -96 -44 -19 -21 -59
-21 -83 -1 -22 18 -214 11 -267 -10 -16 -6 -32 -11 -36 -11 -5 0 -14 -7 -21
-15 -6 -8 -15 -14 -18 -14 -15 2 -52 -14 -52 -22 0 -5 -5 -9 -10 -9 -6 0 -21
-11 -33 -25 -20 -21 -33 -25 -117 -30 -94 -6 -130 -10 -140 -15 -3 -2 -9 -4
-15 -5 -10 -2 -21 -6 -122 -46 -29 -12 -57 -27 -64 -35 -6 -8 -17 -14 -24 -14
-8 0 -15 -5 -17 -12 -3 -7 -26 -12 -61 -12 -31 -1 -57 -4 -57 -8 0 -4 -6 -5
-12 -3 -7 3 -44 -4 -83 -16 -38 -11 -80 -22 -92 -23 -24 -3 -88 -32 -112 -50
-8 -6 -41 -37 -72 -69 -53 -53 -70 -63 -126 -69 -7 -1 -13 -5 -13 -10 0 -4 -8
-8 -17 -8 -57 0 -222 -131 -256 -202 -15 -31 -54 -59 -104 -73 -23 -6 -154
-91 -188 -122 -23 -20 -86 -119 -83 -131 3 -16 -21 -58 -48 -82 -16 -14 -55
-43 -87 -64 -66 -44 -167 -151 -167 -178 0 -10 -4 -18 -8 -18 -5 0 -9 -6 -10
-12 0 -7 -13 -49 -29 -94 -21 -63 -33 -84 -53 -92 -59 -27 -145 -119 -185
-198 -34 -68 -40 -89 -42 -149 -2 -85 26 -205 48 -205 5 0 9 -6 9 -13 0 -21
123 -127 147 -127 7 0 13 -5 13 -11 0 -5 4 -8 8 -5 22 13 49 -25 55 -76 12
-100 17 -123 27 -126 6 -2 8 -7 6 -11 -12 -19 129 -191 157 -191 5 0 21 -8 35
-19 37 -26 168 -52 205 -41 4 1 10 3 15 4 33 8 91 32 119 52 35 24 54 23 86
-4 9 -8 17 -12 17 -9 0 4 24 -4 54 -17 30 -13 69 -28 87 -32 44 -10 179 -12
179 -2 0 5 7 8 16 8 22 0 126 73 150 106 11 16 27 47 34 69 7 22 19 53 27 68
8 16 15 47 15 69 0 37 4 42 47 69 75 46 142 111 161 154 41 91 50 114 50 128
0 20 38 47 55 41 7 -3 16 -1 19 4 3 6 30 18 59 27 47 15 137 80 137 99 0 4 11
22 25 40 14 18 25 38 25 44 0 13 -1 13 85 17 33 1 61 4 63 5 1 1 5 3 10 4 9 3
59 25 101 45 18 9 57 38 85 64 47 44 54 48 89 43 21 -3 42 -8 48 -11 5 -4 9
-2 9 3 0 5 10 8 23 7 25 -2 139 32 209 63 25 11 48 19 50 16 3 -2 24 -6 48 -9
23 -3 47 -8 53 -12 23 -14 203 -11 257 4 77 22 96 23 130 7 16 -8 38 -17 50
-19 11 -2 25 -7 32 -11 6 -4 27 -9 47 -11 45 -4 96 -11 96 -13 0 -1 29 -3 65
-6 59 -4 67 -7 105 -44 22 -22 46 -40 53 -40 12 0 52 -19 62 -30 11 -12 63
-30 85 -30 13 0 26 -4 29 -8 4 -8 126 -8 156 0 59 15 162 106 200 175 29 55
44 77 55 85 6 4 7 8 3 8 -4 0 -4 10 1 23 5 12 5 32 0 43 -9 25 26 63 76 83 29
11 125 126 125 148 0 6 5 13 10 15 10 3 22 62 24 116 1 12 3 22 6 22 8 0 4 67
-6 115 -4 22 -7 43 -6 48 1 4 -2 7 -7 7 -5 0 -12 8 -15 18 -8 25 -113 132
-130 132 -7 0 -20 8 -30 18 -14 17 -15 24 -3 58 12 36 15 196 4 234 -2 8 -8
30 -12 48 -4 17 -11 32 -16 32 -5 0 -9 6 -9 13 -1 16 -46 67 -60 67 -5 0 -10
4 -10 9 0 4 -25 19 -55 32 -30 13 -55 26 -55 29 0 10 -101 11 -135 1 -21 -6
-37 -6 -41 0 -3 5 -12 5 -22 0 -12 -6 -24 -5 -37 5 -10 8 -16 14 -12 14 3 0
-16 20 -42 45 -26 25 -53 45 -60 45 -6 0 -11 4 -11 8 0 4 -12 13 -27 19 -83
36 -130 53 -157 58 -54 11 -181 13 -192 4 -7 -6 -43 7 -100 37 -49 25 -102 47
-119 50 -65 9 -200 16 -207 9z m816 -925 c38 -20 68 -60 69 -94 1 -14 5 -26 8
-26 11 0 1 -52 -16 -91 -16 -35 -20 -37 -58 -34 -32 2 -47 10 -74 41 -57 63
-69 101 -49 159 7 22 63 65 80 62 6 -1 24 -9 40 -17z"/>
</g>
</svg>
